<?xml version="1.0" standalone="no"?>
<!DOCTYPE svg PUBLIC "-//W3C//DTD SVG 20010904//EN"
 "http://www.w3.org/TR/2001/REC-SVG-20010904/DTD/svg10.dtd">
<svg version="1.0" xmlns="http://www.w3.org/2000/svg"
 width="225.000000pt" height="225.000000pt" viewBox="0 0 225.000000 225.000000"
 preserveAspectRatio="xMidYMid meet">

<g transform="translate(0.000000,225.000000) scale(0.100000,-0.100000)"
fill="#000000" stroke="none">
<path d="M230 2062 c-19 -9 -40 -28 -47 -42 -10 -20 -12 -215 -10 -912 l2
-888 28 -27 27 -28 888 -3 c654 -2 894 1 915 9 59 25 57 -13 57 951 0 971 4
910 -60 943 -25 13 -146 15 -897 15 -806 0 -870 -1 -903 -18z m1780 -81 c7
-13 10 -303 10 -870 0 -759 -2 -851 -16 -865 -14 -14 -106 -16 -865 -16 -567
0 -857 3 -870 10 -19 10 -19 31 -19 879 0 477 3 871 7 874 3 4 397 7 874 7
848 0 869 0 879 -19z"/>
<path d="M650 1616 c0 -7 -3 -28 -6 -45 l-6 -31 166 0 c134 0 166 3 166 14 0
7 3 28 6 45 l7 31 -167 0 c-134 0 -166 -3 -166 -14z"/>
<path d="M1045 1618 c-6 -18 -65 -350 -65 -366 0 -9 14 -12 48 -10 l47 3 22
110 c13 61 25 120 28 133 5 21 10 22 95 22 65 0 90 -3 90 -12 0 -7 -32 -183
-72 -390 l-73 -378 -52 0 c-57 0 -56 1 -68 -77 l-7 -43 175 0 175 0 6 30 c3
16 9 44 12 60 l6 30 -59 0 -59 0 72 375 c40 207 75 382 78 390 7 20 186 22
186 3 0 -7 -11 -66 -24 -130 l-23 -118 52 0 51 0 32 183 c18 100 32 185 32
190 0 4 -158 7 -350 7 -272 0 -352 -3 -355 -12z"/>
<path d="M596 1308 c-3 -7 -7 -28 -10 -45 l-5 -33 164 0 c164 0 165 0 165 23
0 12 3 32 6 45 l6 22 -161 0 c-121 0 -163 -3 -165 -12z"/>
<path d="M533 968 l-9 -43 300 -3 c164 -1 300 -1 302 1 2 1 6 22 10 45 l7 42
-301 0 -301 0 -8 -42z"/>
<path d="M476 669 c-12 -63 -28 -59 244 -59 205 0 250 2 250 14 0 7 3 28 6 45
l7 31 -250 0 -250 0 -7 -31z"/>
</g>
</svg>
