<?xml version="1.0" standalone="no"?>
<!DOCTYPE svg PUBLIC "-//W3C//DTD SVG 20010904//EN"
 "http://www.w3.org/TR/2001/REC-SVG-20010904/DTD/svg10.dtd">
<svg version="1.0" xmlns="http://www.w3.org/2000/svg"
 width="192.000000pt" height="192.000000pt" viewBox="0 0 192.000000 192.000000"
 preserveAspectRatio="xMidYMid meet">
<metadata>
Created by potrace 1.16, written by Peter Selinger 2001-2019
</metadata>
<g transform="translate(0.000000,192.000000) scale(0.100000,-0.100000)"
fill="#000000" stroke="none">
<path d="M0 960 l0 -960 960 0 960 0 0 960 0 960 -960 0 -960 0 0 -960z m1754
789 l26 -20 0 -774 0 -774 -26 -20 c-26 -21 -33 -21 -789 -21 -756 0 -763 0
-789 21 l-26 20 0 770 0 770 25 24 24 25 764 0 c758 0 765 0 791 -21z"/>
<path d="M222 1698 c-9 -9 -12 -189 -12 -750 l0 -738 23 -5 c12 -3 351 -4 752
-3 l730 3 3 730 c1 402 0 740 -3 753 l-5 22 -738 0 c-561 0 -741 -3 -750 -12z
m609 -343 c-1 -16 -5 -33 -8 -37 -2 -5 -65 -8 -139 -8 l-134 0 0 33 c0 19 3
37 7 41 4 3 68 5 142 4 l136 -3 -4 -30z m658 3 c0 -18 -12 -91 -27 -163 l-27
-130 -42 -3 c-24 -2 -43 -1 -43 1 0 3 9 49 20 104 11 54 20 104 20 111 0 15
-145 17 -155 2 -3 -5 -26 -114 -50 -242 -25 -128 -52 -267 -60 -309 -22 -111
-22 -109 30 -109 48 0 49 -1 39 -63 l-7 -37 -148 0 c-113 0 -149 3 -149 13 0
6 3 29 6 49 6 36 8 37 52 40 l46 3 63 320 c34 176 62 326 62 333 1 10 -18 12
-76 10 l-78 -3 -24 -112 -25 -113 -38 0 c-47 0 -47 -2 -11 188 l27 142 298 0
298 0 -1 -32z m-711 -270 l-3 -33 -137 -3 -138 -3 0 29 c0 16 3 32 7 35 3 4
67 7 140 7 l134 0 -3 -32z m192 -252 c0 -58 10 -56 -266 -56 -278 0 -264 -3
-248 58 l6 22 254 0 254 0 0 -24z m-139 -241 c3 -2 3 -20 1 -40 l-4 -35 -214
0 c-118 0 -214 4 -214 9 0 5 3 23 6 40 l7 31 207 0 c113 0 209 -2 211 -5z"/>
</g>
</svg>
